<svg height="511pt" viewBox="0 -55 511.75512 511" width="511pt" xmlns="http://www.w3.org/2000/svg"><path d="m0 392.777344c0 4.710937 3.820312 8.53125 8.535156 8.53125h426.664063c4.714843 0 8.535156-3.820313 8.535156-8.53125 0-4.714844-3.820313-8.535156-8.535156-8.535156h-37.171875c.316406-.65625.726562-1.246094.992187-1.945313 5.933594-15.386719-1.664062-32.675781-17.007812-38.714844l-98.40625-37.769531-68.523438-26.820312 12.195313-40.59375 16.324218 11.71875c10.691407 7.71875 24.398438 9.953124 36.988282 6.027343 12.59375-3.921875 22.601562-13.550781 27.011718-25.980469l10.828126-30.496093c1.035156-2.992188 1.589843-6.128907 1.636718-9.292969l179.277344 98.933594c4.101562 2.09375 9.121094.550781 11.347656-3.476563 2.222656-4.03125.851563-9.097656-3.101562-11.457031l-269.332032-148.597656c4.1875-5.371094 7.253907-11.527344 9.011719-18.109375l12.722657 5.976562c1.726562.8125 3.605468 1.238281 5.515624 1.242188 4.433594-.011719 8.542969-2.320313 10.863282-6.101563 2.320312-3.777344 2.519531-8.488281.527344-12.449218l-43.988282-87.96875c-2.910156-5.824219-9.722656-8.535157-15.839844-6.304688l-80.640624 29.320312c-4.863282 1.761719-8.1875 6.277344-8.425782 11.445313-.238281 5.171875 2.660156 9.972656 7.34375 12.171875l20.734375 9.753906c-2.644531 3.761719-4.773437 7.863282-6.320312 12.195313l-137.105469-75.640625c-4.101562-2.089844-9.121094-.550782-11.347656 3.480468-2.222656 4.03125-.851563 9.097657 3.101562 11.453126l70.828125 39.09375c-5.601562 3.199218-10.027343 8.117187-12.621093 14.027343l-19.625 48.324219-.402344.9375c-5.085938 12.085938-4.820313 25.757812.730468 37.636719 5.550782 11.875 15.871094 20.851562 28.402344 24.699219l55.6875 17.144531-12.988281 58.136719-26.757813-4.144532-.367187-.054687c-12.9375-2.074219-26.03125 2.664062-34.636719 12.542969-8.609375 9.882812-11.511718 23.5-7.679687 36.03125l23.652343 79.582031c.464844 1.402343 1.035157 2.769531 1.707032 4.085937h-61.804688c-4.699218 0-8.5117185 3.796875-8.535156 8.492188zm219.308594-373.375 36.785156 73.574218-82.097656-38.640624-.417969-.195313-21.71875-10.242187zm-47.371094 52.828125 59.417969 27.964843c-1.109375 6.40625-4.050781 12.351563-8.464844 17.125l-57.839844-31.914062c1.296875-4.855469 3.660157-9.355469 6.921875-13.175781zm33.722656 55.074219c-2.519531.597656-5.097656.914062-7.6875.9375-14.472656-.042969-27.339844-9.226563-32.085937-22.902344zm-58.878906-32.496094c.269531 18.394531 10.378906 35.234375 26.488281 44.121094 16.105469 8.886718 35.742188 8.460937 51.449219-1.121094l49.117188 27.128906c-5.398438 3.515625-9.503907 8.691406-11.699219 14.746094l-2.929688 8.164062-18.695312-13.523437c-9.84375-7.082031-20.863281-12.367188-32.546875-15.617188l-58.632813-16.351562-45.960937-14.171875 13.3125-33.46875c2.105468-4.738282 3.011718-9.921875 2.636718-15.09375zm-85.484375 200.757812c-2.109375-6.933594-.472656-14.460937 4.324219-19.894531 4.792968-5.429687 12.0625-7.988281 19.199218-6.757813.1875.035157.375.0625.5625.078126l34.3125 5.324218c4.441407.6875 8.65625-2.183594 9.636719-6.570312l16.46875-73.644532c.972657-4.34375-1.5625-8.707031-5.820312-10.015624l-63.230469-19.457032c-7.921875-2.429687-14.445312-8.101562-17.953125-15.605468-3.511719-7.507813-3.683594-16.144532-.472656-23.785157l19.996093-49.226562c1.449219-3.289063 4.25-5.796875 7.679688-6.878907 3.464844-1.136718 7.253906-.722656 10.390625 1.136719 5.835937 3.898438 7.808594 11.558594 4.574219 17.789063l-16.902344 42.402344c-.878906 2.210937-.796875 4.691406.230469 6.835937 1.027343 2.148437 2.90625 3.769531 5.179687 4.472656l55.015625 16.964844 58.878907 16.398437c9.742187 2.710938 18.933593 7.121094 27.144531 13.023438l27.902343 20.136719c2.175782 1.570312 4.964844 2.027343 7.527344 1.230469 2.5625-.796876 4.601563-2.753907 5.503906-5.28125l6.742188-18.824219c2.398438-6.671875 9.730469-10.15625 16.417969-7.800781 3.191406 1.132812 5.800781 3.492187 7.242187 6.554687 1.441406 3.066406 1.601563 6.578125.4375 9.761719l-10.847656 30.566406c-2.625 7.355469-8.558594 13.046875-16.015625 15.363281-7.460937 2.316407-15.574219.988281-21.90625-3.589843l-26.015625-18.6875c-2.25-1.589844-5.121094-2.015626-7.734375-1.140626-2.605469.886719-4.625 2.980469-5.417969 5.621094l-17.917968 59.53125c-1.300782 4.261719.898437 8.808594 5.050781 10.433594l75.945312 29.722656 98.390625 37.742188c6.585938 2.601562 9.84375 10.023437 7.296875 16.632812-1.214843 3.164063-3.652343 5.703125-6.757812 7.054688-3.132813 1.367187-6.675781 1.433594-9.855469.1875l-160.265625-61.976563c-17.003906-6.652343-34.640625-11.5625-52.632813-14.660156l-51.859374-8.890625c-.476563-.085938-.957032-.128906-1.441407-.128906-2.6875 0-5.21875 1.269531-6.828125 3.421875-1.613281 2.152343-2.113281 4.9375-1.355468 7.519531l17.339843 59.050781c1.835938 6.664063-1.953125 13.585938-8.5625 15.628907-6.609375 2.039062-13.640625-1.535157-15.886719-8.078126zm64.484375 67.257813-13.464844-45.847657 38.398438 6.585938c16.878906 2.894531 33.417968 7.496094 49.367187 13.738281l121.386719 46.941407h-197.410156c3.234375-6.671876 3.851562-14.3125 1.722656-21.417969zm0 0"/><path d="m469.332031 384.242188c-4.710937 0-8.53125 3.820312-8.53125 8.535156 0 4.710937 3.820313 8.53125 8.53125 8.53125h17.066407c4.714843 0 8.535156-3.820313 8.535156-8.53125 0-4.714844-3.820313-8.535156-8.535156-8.535156zm0 0"/></svg>